<svg xmlns="http://www.w3.org/2000/svg" width="35" height="35" viewBox="0 0 45 45" fill="none">
  <path d="M10.4981 14.6217L14.433 21.5077C14.7098 21.9922 14.8482 22.2344 14.8482 22.5C14.8482 22.7656 14.7098 23.0078 14.433 23.4923L10.4981 30.3783C9.25981 32.5453 8.64066 33.6289 9.12348 34.1662C9.6063 34.7035 10.7496 34.2033 13.0362 33.2029L33.3119 24.3323C35.1074 23.5468 36.0051 23.154 36.0051 22.5C36.0051 21.846 35.1074 21.4532 33.3119 20.6677L13.0362 11.7971C10.7496 10.7967 9.6063 10.2965 9.12348 10.8338C8.64066 11.3711 9.25981 12.4547 10.4981 14.6217Z" fill="#34FAFA"/>
</svg>