<svg xmlns="http://www.w3.org/2000/svg" width="30" height="30" viewBox="0 0 40 40" fill="none">
  <mask id="mask0_81_2040" style="mask-type:alpha" maskUnits="userSpaceOnUse" x="3" y="3" width="34" height="34">
    <path fill-rule="evenodd" clip-rule="evenodd" d="M23.5136 5.13435V5.13437L23.6568 6.56658C23.8202 8.20012 23.9018 9.01689 24.4547 9.24587C25.0075 9.47486 25.6428 8.95507 26.9134 7.91549L28.0273 7.00406C28.6931 6.45935 29.026 6.18699 29.4108 6.20619C29.7956 6.22538 30.0998 6.52951 30.708 7.13776L32.8624 9.29211C33.4706 9.90037 33.7748 10.2045 33.794 10.5893C33.8132 10.9742 33.5408 11.307 32.9961 11.9728L32.0846 13.0868C31.045 14.3574 30.5252 14.9927 30.7542 15.5455C30.9832 16.0983 31.8 16.18 33.4335 16.3434L34.8658 16.4866C35.7218 16.5722 36.1497 16.615 36.4083 16.9007C36.6668 17.1864 36.6668 17.6165 36.6668 18.4767V21.5234C36.6668 22.3836 36.6668 22.8137 36.4083 23.0994C36.1497 23.3851 35.7218 23.4279 34.8659 23.5135H34.8658L33.4341 23.6566C31.8006 23.82 30.9838 23.9017 30.7549 24.4545C30.5259 25.0073 31.0457 25.6426 32.0852 26.9132L32.9962 28.0265C33.5409 28.6923 33.8132 29.0252 33.794 29.41C33.7748 29.7948 33.4707 30.099 32.8625 30.7072L30.7081 32.8616C30.0998 33.4698 29.7957 33.774 29.4109 33.7932C29.0261 33.8124 28.6932 33.54 28.0274 32.9953L26.9134 32.0838C25.6428 31.0443 25.0075 30.5245 24.4547 30.7535C23.9019 30.9825 23.8202 31.7992 23.6569 33.4328L23.5136 34.8657V34.8657C23.428 35.7217 23.3852 36.1496 23.0995 36.4082C22.8138 36.6667 22.3837 36.6667 21.5235 36.6667H18.4768C17.6166 36.6667 17.1865 36.6667 16.9008 36.4082C16.6151 36.1496 16.5723 35.7216 16.4867 34.8657L16.3435 33.4334C16.1801 31.7999 16.0985 30.9831 15.5457 30.7541C14.9928 30.5251 14.3575 31.0449 13.0869 32.0845L11.9728 32.996C11.3071 33.5408 10.9742 33.8131 10.5894 33.7939C10.2045 33.7747 9.90041 33.4706 9.29216 32.8623L7.1378 30.708L7.13779 30.708C6.52955 30.0997 6.22542 29.7956 6.20623 29.4108C6.18704 29.0259 6.45939 28.6931 7.0041 28.0273L7.9156 26.9132C8.95518 25.6427 9.47497 25.0074 9.24598 24.4545C9.017 23.9017 8.20023 23.82 6.56669 23.6567L5.13449 23.5135C4.27856 23.4279 3.85059 23.3851 3.59204 23.0994C3.3335 22.8137 3.3335 22.3836 3.3335 21.5234V18.4767C3.3335 17.6165 3.3335 17.1864 3.59204 16.9007C3.85059 16.615 4.27856 16.5722 5.13449 16.4866L6.56732 16.3433C8.20086 16.18 9.01763 16.0983 9.24661 15.5455C9.47559 14.9927 8.9558 14.3574 7.91623 13.0868L7.00418 11.972C6.45947 11.3063 6.18711 10.9734 6.20631 10.5886C6.2255 10.2037 6.52963 9.89961 7.13788 9.29136L9.29223 7.137C9.90049 6.52875 10.2046 6.22462 10.5894 6.20543C10.9743 6.18624 11.3072 6.45859 11.9729 7.0033L13.087 7.91484C14.3576 8.95442 14.9929 9.4742 15.5457 9.24522C16.0985 9.01624 16.1802 8.19947 16.3436 6.56593L16.4867 5.13437C16.5723 4.27844 16.6151 3.85047 16.9008 3.59192C17.1865 3.33337 17.6166 3.33337 18.4768 3.33337H21.5235C22.3837 3.33337 22.8138 3.33337 23.0995 3.59192C23.3852 3.85047 23.428 4.27843 23.5136 5.13435ZM20.0002 26.6667C23.6821 26.6667 26.6668 23.6819 26.6668 20C26.6668 16.3181 23.6821 13.3334 20.0002 13.3334C16.3183 13.3334 13.3335 16.3181 13.3335 20C13.3335 23.6819 16.3183 26.6667 20.0002 26.6667Z" fill="#222222"/>
  </mask>
  <g mask="url(#mask0_81_2040)">
    <rect width="62" height="40" fill="#D9D9D9"/>
  </g>
</svg>